<svg width="1768" height="593" xmlns="http://www.w3.org/2000/svg" xmlns:xlink="http://www.w3.org/1999/xlink" xml:space="preserve" overflow="hidden"><defs><clipPath id="clip0"><rect x="432" y="535" width="1768" height="593"/></clipPath><clipPath id="clip1"><rect x="811" y="797" width="331" height="331"/></clipPath><clipPath id="clip2"><rect x="811" y="797" width="331" height="331"/></clipPath><clipPath id="clip3"><rect x="811" y="797" width="331" height="331"/></clipPath><clipPath id="clip4"><rect x="1169" y="797" width="331" height="331"/></clipPath><clipPath id="clip5"><rect x="1169" y="797" width="331" height="331"/></clipPath><clipPath id="clip6"><rect x="1169" y="797" width="331" height="331"/></clipPath><clipPath id="clip7"><rect x="1531" y="797" width="331" height="331"/></clipPath><clipPath id="clip8"><rect x="1531" y="797" width="331" height="331"/></clipPath><clipPath id="clip9"><rect x="1531" y="797" width="331" height="331"/></clipPath><clipPath id="clip10"><rect x="1870" y="797" width="330" height="331"/></clipPath><clipPath id="clip11"><rect x="1870" y="797" width="330" height="331"/></clipPath><clipPath id="clip12"><rect x="1870" y="797" width="330" height="331"/></clipPath><clipPath id="clip13"><path d="M948.078 627.225 1063.37 657.364 1033.23 772.656 917.94 742.517Z" fill-rule="evenodd" clip-rule="evenodd"/></clipPath><clipPath id="clip14"><path d="M948.078 627.225 1063.37 657.364 1033.23 772.656 917.94 742.517Z" fill-rule="evenodd" clip-rule="evenodd"/></clipPath><clipPath id="clip15"><path d="M948.078 627.225 1063.37 657.364 1033.23 772.656 917.94 742.517Z" fill-rule="evenodd" clip-rule="evenodd"/></clipPath><clipPath id="clip16"><path d="M1188.31 535.194 1303.6 565.333 1273.46 680.625 1158.17 650.487Z" fill-rule="evenodd" clip-rule="evenodd"/></clipPath><clipPath id="clip17"><path d="M1188.31 535.194 1303.6 565.333 1273.46 680.625 1158.17 650.487Z" fill-rule="evenodd" clip-rule="evenodd"/></clipPath><clipPath id="clip18"><path d="M1188.31 535.194 1303.6 565.333 1273.46 680.625 1158.17 650.487Z" fill-rule="evenodd" clip-rule="evenodd"/></clipPath><clipPath id="clip19"><path d="M1349.59 708.071 1460.82 665.323 1503.57 776.559 1392.33 819.306Z" fill-rule="evenodd" clip-rule="evenodd"/></clipPath><clipPath id="clip20"><path d="M1349.59 708.071 1460.82 665.323 1503.57 776.559 1392.33 819.306Z" fill-rule="evenodd" clip-rule="evenodd"/></clipPath><clipPath id="clip21"><path d="M1349.59 708.071 1460.82 665.323 1503.57 776.559 1392.33 819.306Z" fill-rule="evenodd" clip-rule="evenodd"/></clipPath><clipPath id="clip22"><path d="M1642.13 616.094 1757.42 646.233 1727.28 761.525 1611.99 731.386Z" fill-rule="evenodd" clip-rule="evenodd"/></clipPath><clipPath id="clip23"><path d="M1642.13 616.094 1757.42 646.233 1727.28 761.525 1611.99 731.386Z" fill-rule="evenodd" clip-rule="evenodd"/></clipPath><clipPath id="clip24"><path d="M1642.13 616.094 1757.42 646.233 1727.28 761.525 1611.99 731.386Z" fill-rule="evenodd" clip-rule="evenodd"/></clipPath><clipPath id="clip25"><path d="M1974.91 701.807 2086.79 660.767 2127.83 772.643 2015.95 813.683Z" fill-rule="evenodd" clip-rule="evenodd"/></clipPath><clipPath id="clip26"><path d="M1974.91 701.807 2086.79 660.767 2127.83 772.643 2015.95 813.683Z" fill-rule="evenodd" clip-rule="evenodd"/></clipPath><clipPath id="clip27"><path d="M1974.91 701.807 2086.79 660.767 2127.83 772.643 2015.95 813.683Z" fill-rule="evenodd" clip-rule="evenodd"/></clipPath></defs><g clip-path="url(#clip0)" transform="translate(-432 -535)"><path d="M443.542 556.209 460.58 556.522 477.652 557.401 494.666 558.782 511.55 560.791 528.37 563.238 544.941 566.251 561.321 569.703 577.515 573.657 593.394 578.051 609.021 582.883 624.273 588.093 639.155 593.681 653.657 599.708 667.724 605.988 681.359 612.711 694.427 619.685 707.001 626.978 719.009 634.585 730.461 642.387 741.232 650.513 751.309 658.826 760.765 667.337 769.482 676.053 777.383 684.966 784.537 694.02 790.814 703.277 796.277 712.614 800.798 722.102 804.371 731.608 806.992 741.261 808.593 750.932 809.163 760.56 809.663 770.067 809.636 769.813 811.198 779.251 811.148 779.021 813.711 788.396 813.642 788.186 817.205 797.561 817.131 797.389 821.569 806.702 821.484 806.54 826.796 815.728 826.699 815.574 832.949 824.637 832.86 824.517 839.923 833.454 839.84 833.355 847.652 842.167 847.564 842.073 856.189 850.76 856.101 850.677 865.414 859.114 865.328 859.04 875.39 867.29 875.311 867.228 885.998 875.228 885.922 875.174 897.297 882.986 897.219 882.935 909.157 890.435 909.087 890.393 921.587 897.643 921.524 897.607 934.524 904.607 934.443 904.566 948.006 911.191 947.942 911.161 961.942 917.474 961.872 917.443 976.309 923.381 976.243 923.355 991.056 928.917 990.999 928.897 1006.19 934.147 1006.11 934.121 1021.67 938.871 1021.61 938.854 1037.42 943.229 1037.36 943.212 1053.42 947.149 1053.35 947.133 1069.66 950.57 1069.6 950.558 1086.16 953.558 1086.08 953.545 1102.77 955.982 1102.7 955.974 1119.51 957.911 1119.44 957.904 1136.38 959.342 1136.29 959.336 1147.36 959.809 1147.17 964.388 1136.04 963.913 1119.02 962.468 1102.14 960.523 1085.38 958.075 1068.75 955.062 1052.37 951.61 1036.23 947.655 1020.36 943.263 1004.73 938.492 989.473 933.219 974.599 927.633 960.093 921.667 946.026 915.325 932.391 908.664 919.319 901.626 906.753 894.337 894.741 886.791 883.289 878.925 872.524 870.867 862.378 862.549 852.979 854.033 844.266 845.256 836.367 836.347 829.218 827.3 822.874 818.101 817.47 808.756 812.953 799.277 809.318 789.711 806.696 780.116 805.093 770.436 804.586 760.808 804.587 760.823 804.025 751.323 804.052 751.562 802.489 742.124 802.538 742.351 799.976 732.913 800.042 733.119 796.542 723.806 796.619 723.986 792.181 714.673 792.272 714.845 786.897 705.657 786.978 705.786 780.791 696.661 780.889 696.796 773.827 687.858 773.91 687.958 766.098 679.145 766.192 679.246 757.567 670.621 757.654 670.703 748.279 662.266 748.354 662.33 738.354 654.08 738.432 654.142 727.745 646.08 727.835 646.144 716.46 638.394 716.524 638.436 704.586 630.874 704.663 630.92 692.163 623.67 692.234 623.709 679.234 616.772 679.299 616.805 665.736 610.118 665.816 610.155 651.816 603.905 651.87 603.929 637.433 597.929 637.507 597.958 622.694 592.396 622.759 592.419 607.572 587.231 607.635 587.252 592.073 582.44 592.139 582.459 576.326 578.084 576.394 578.101 560.269 574.164 560.34 574.18 544.027 570.743 544.09 570.755 527.59 567.755 527.67 567.768 510.92 565.33 510.979 565.338 494.167 563.338 494.252 563.347 477.315 561.972 477.382 561.976 460.382 561.101 460.458 561.104 443.458 560.791ZM1143.1 948.216 1170.17 962.792 1142.27 975.703Z" fill="#00B0F0"/><path d="M443.528 556.209 469.053 556.521 494.539 557.398 519.965 558.776 545.202 560.78 570.249 563.222 595.047 566.228 619.594 569.672 643.705 573.617 667.502 578.001 690.799 582.823 713.596 588.021 735.835 593.597 757.508 599.61 778.561 605.876 798.868 612.582 818.422 619.539 837.235 626.813 855.172 634.402 872.241 642.183 888.316 650.284 903.455 658.575 917.542 667.066 930.514 675.755 942.366 684.645 953.044 693.68 962.481 702.927 970.615 712.268 977.371 721.765 982.817 731.311 986.73 740.997 988.166 745.892 989.137 750.816 989.786 755.743 989.977 760.597 990.165 765.347 990.147 765.139 990.772 769.889 990.747 769.738 991.685 774.426 991.639 774.238 993.014 778.988 992.935 778.762 996.748 788.137 996.619 787.87 1001.93 797.245 1001.8 797.047 1008.43 806.359 1008.29 806.183 1016.29 815.37 1016.16 815.233 1025.47 824.295 1025.36 824.188 1035.92 833.126 1035.81 833.042 1047.56 841.854 1047.46 841.784 1060.34 850.409 1060.25 850.354 1074.25 858.854 1074.16 858.803 1089.23 867.053 1089.15 867.013 1105.15 875.013 1105.08 874.98 1122.08 882.793 1122.01 882.762 1139.89 890.262 1139.83 890.238 1158.58 897.488 1158.52 897.466 1178.02 904.404 1177.96 904.385 1198.21 911.01 1198.16 910.993 1219.16 917.305 1219.11 917.29 1240.73 923.228 1240.68 923.215 1262.87 928.777 1262.82 928.766 1285.57 933.953 1285.53 933.944 1308.78 938.756 1308.72 938.745 1332.47 943.058 1332.43 943.051 1356.49 946.989 1356.44 946.981 1380.94 950.418 1380.9 950.412 1405.65 953.349 1405.6 953.344 1430.6 955.782 1430.55 955.778 1455.74 957.715 1455.69 957.712 1481.07 959.15 1481.01 959.147 1508.99 959.996 1508.85 964.577 1480.84 963.727 1455.41 962.287 1430.18 960.346 1405.13 957.904 1380.33 954.96 1355.78 951.516 1331.67 947.571 1307.88 943.25 1284.58 938.427 1261.78 933.229 1239.54 927.654 1217.87 921.703 1196.81 915.374 1176.51 908.732 1156.95 901.774 1138.14 894.501 1120.2 886.973 1103.13 879.129 1087.06 871.093 1071.92 862.798 1057.83 854.245 1044.86 845.558 1033.01 836.668 1022.33 827.636 1012.9 818.451 1004.76 809.108 998.002 799.607 992.558 790.001 988.644 780.377 987.209 775.419 986.238 770.562 985.589 765.633 985.398 760.778 985.21 756.028 985.228 756.237 984.603 751.487 984.627 751.631 983.689 746.881 983.738 747.083 982.363 742.395 982.438 742.609 978.625 733.171 978.759 733.448 973.447 724.136 973.57 724.329 966.945 715.016 967.084 715.193 959.084 706.005 959.209 706.137 949.896 697.012 950.02 697.125 939.457 688.187 939.562 688.271 927.812 679.458 927.912 679.529 915.037 670.904 915.13 670.963 901.13 662.525 901.212 662.573 886.149 654.323 886.219 654.359 870.219 646.297 870.299 646.335 853.299 638.585 853.357 638.611 835.482 631.048 835.548 631.075 816.798 623.825 816.857 623.847 797.357 616.909 797.406 616.926 777.156 610.239 777.221 610.259 756.221 604.009 756.262 604.021 734.637 598.021 734.693 598.036 712.505 592.473 712.553 592.484 689.803 587.297 689.848 587.307 666.598 582.494 666.647 582.504 642.897 578.129 642.942 578.137 618.88 574.199 618.932 574.207 594.432 570.77 594.474 570.775 569.724 567.775 569.778 567.781 544.778 565.343 544.819 565.347 519.631 563.347 519.688 563.351 494.313 561.976 494.359 561.978 468.921 561.103 468.972 561.104 443.472 560.792ZM1504.64 948.438 1531.83 962.792 1504.04 975.932Z" fill="#00B0F0"/><path d="M443.521 556.209 476.978 556.521 510.39 557.397 543.679 558.774 576.779 560.776 609.628 563.216 642.103 566.22 674.201 569.661 705.864 573.603 737.026 577.983 767.562 582.802 797.411 587.996 826.64 593.566 854.991 599.574 882.533 605.834 909.204 612.533 934.812 619.483 959.426 626.748 982.915 634.327 1005.29 642.097 1026.35 650.185 1046.17 658.464 1064.55 666.933 1073.29 671.271 1081.59 675.608 1089.51 680.01 1097.13 684.48 1104.31 689.014 1111.06 693.491 1117.44 698.103 1123.37 702.713 1128.94 707.334 1134.09 712.036 1138.73 716.744 1142.94 721.458 1146.78 726.263 1150.06 731.087 1152.9 735.928 1155.23 740.845 1157.12 745.731 1158.43 750.702 1159.28 755.683 1159.54 760.567 1159.79 765.317 1159.76 765.051 1160.57 769.801 1160.53 769.597 1161.78 774.285 1161.7 774.058 1163.52 778.808 1163.44 778.633 1165.69 783.321 1165.6 783.153 1168.35 787.841 1168.27 787.711 1171.46 792.399 1171.36 792.271 1175.05 796.958 1174.96 796.848 1179.15 801.536 1179.07 801.453 1183.63 806.078 1183.55 805.996 1188.61 810.621 1188.54 810.557 1193.97 815.12 1193.9 815.058 1199.83 819.62 1199.77 819.572 1206.08 824.072 1206.03 824.036 1212.72 828.536 1212.65 828.492 1219.77 832.93 1219.73 832.903 1227.23 837.34 1227.17 837.306 1235.11 841.681 1235.07 841.663 1243.32 846.038 1243.26 846.007 1251.89 850.257 1251.84 850.233 1270.21 858.733 1270.14 858.699 1289.82 866.949 1289.75 866.92 1310.81 874.92 1310.76 874.9 1333.01 882.713 1332.95 882.693 1356.39 890.193 1356.34 890.177 1380.9 897.427 1380.85 897.413 1406.41 904.351 1406.37 904.339 1432.93 910.964 1432.89 910.954 1460.39 917.267 1460.34 917.257 1488.72 923.195 1488.68 923.187 1517.8 928.749 1517.77 928.742 1547.58 933.93 1547.54 933.924 1578.04 938.736 1578 938.73 1609.06 943.043 1609.03 943.038 1640.66 946.976 1640.62 946.971 1672.68 950.409 1672.64 950.405 1705.08 953.343 1705.04 953.34 1737.79 955.777 1737.76 955.775 1770.82 957.712 1770.79 957.711 1804.04 959.148 1803.99 959.147 1837.31 959.959 1837.29 959.959 1848 960.131 1847.93 964.714 1837.2 964.541 1803.86 963.728 1770.57 962.289 1737.47 960.349 1704.69 957.909 1672.21 954.968 1640.11 951.527 1608.45 947.585 1577.35 943.267 1546.81 938.448 1516.96 933.255 1487.8 927.685 1459.38 921.739 1431.84 915.416 1405.24 908.78 1379.63 901.83 1355.01 894.566 1331.52 887.048 1309.21 879.215 1288.09 871.191 1268.33 862.91 1249.89 854.381 1241.21 850.103 1232.91 845.704 1224.93 841.303 1217.37 836.834 1210.19 832.361 1203.44 827.822 1197.07 823.28 1191.06 818.662 1185.55 814.037 1180.41 809.339 1175.77 804.632 1171.49 799.848 1167.71 795.042 1164.44 790.226 1161.6 785.39 1159.27 780.531 1157.38 775.581 1156.07 770.677 1155.22 765.692 1154.96 760.808 1154.71 756.058 1154.74 756.324 1153.93 751.574 1153.97 751.771 1152.72 747.021 1152.8 747.264 1150.99 742.577 1151.05 742.731 1148.8 737.981 1148.9 738.16 1146.15 733.472 1146.23 733.601 1143.04 728.914 1143.15 729.057 1139.4 724.369 1139.48 724.463 1135.35 719.838 1135.43 719.922 1130.87 715.297 1130.95 715.38 1125.89 710.755 1125.97 710.826 1120.47 706.264 1120.53 706.31 1114.66 701.748 1114.72 701.795 1108.41 697.232 1108.48 697.285 1101.8 692.847 1101.84 692.875 1094.71 688.375 1094.78 688.414 1087.22 683.977 1087.26 684.003 1079.39 679.628 1079.44 679.656 1071.19 675.344 1071.23 675.365 1062.54 671.053 1062.6 671.081 1044.29 662.644 1044.37 662.677 1024.62 654.427 1024.68 654.452 1003.68 646.39 1003.75 646.415 981.436 638.665 981.484 638.681 958.046 631.119 958.101 631.136 933.539 623.886 933.587 623.899 908.025 616.962 908.067 616.973 881.442 610.285 881.492 610.297 853.992 604.047 854.025 604.055 825.712 598.055 825.758 598.064 796.571 592.501 796.607 592.508 766.795 587.32 766.83 587.326 736.33 582.514 736.368 582.519 705.243 578.144 705.279 578.149 673.654 574.212 673.693 574.216 641.631 570.779 641.664 570.782 609.226 567.782 609.268 567.785 576.455 565.348 576.487 565.35 543.424 563.35 543.468 563.352 510.218 561.977 510.252 561.979 476.877 561.104 476.916 561.104 443.479 560.792ZM1843.61 948.601 1870.88 962.792 1843.16 976.097Z" fill="#00B0F0"/><path d="M443 558 2157.48 562.583" stroke="#000000" stroke-width="10.3125" stroke-miterlimit="8" fill="none" fill-rule="evenodd"/><g clip-path="url(#clip1)"><g clip-path="url(#clip2)"><g clip-path="url(#clip3)"><path d="M1035.88 1073.46C1035.34 1072.98 1034.78 1072.51 1034.22 1072.04 1021.81 1062.08 1005.64 1058.08 990.018 1061.12L990.705 1038.56C990.499 1030.14 989.674 1021.74 988.237 1013.45 991.133 1010.66 994.559 1008.49 998.312 1007.05 1008.46 1023.55 1029.85 1029.02 1046.67 1019.43L1046.67 1019.43C1074.26 1004.25 1077.68 976.086 1077.68 944.513 1077.68 944.513 1049.74 952.247 1030.79 952.247 1030.14 952.247 1029.51 952.247 1028.88 952.22 1009.02 952.22 992.919 968.321 992.919 988.183L992.919 990.056C992.932 993.797 993.707 997.495 995.198 1000.93 992.256 1002.2 989.445 1003.75 986.807 1005.57 986.14 1002.15 985.432 998.791 984.745 995.457 980.506 975.213 976.495 956.094 980.908 928.192 981.784 922.786 983.034 917.447 984.648 912.214 989.27 909.27 994.579 907.581 1000.05 907.312 1000.01 907.852 999.907 908.378 999.907 908.921L999.907 910.351C1000.7 918.641 1007.12 925.283 1015.38 926.366L1015.38 926.366C1016.81 926.581 1018.27 926.69 1019.72 926.693 1032.85 926.693 1041.76 917.305 1050.4 905.955 1042.72 902.906 1035.42 898.979 1028.64 894.25 1025.55 891.882 1021.76 890.601 1017.86 890.603 1012.8 890.6 1007.98 892.72 1004.56 896.446 1003.54 897.666 1002.67 899.01 1001.98 900.448 997.136 900.342 992.323 901.196 987.814 902.96 992.965 889.776 999.557 877.201 1007.47 865.464 1008.64 865.989 1009.85 866.42 1011.09 866.753 1012.51 867.147 1013.97 867.365 1015.44 867.403 1015.91 867.406 1016.38 867.371 1016.84 867.296 1025.43 865.818 1031.85 858.59 1032.31 849.885 1032.65 841.636 1033.94 833.453 1036.16 825.5 1020.37 825.5 1006.3 827.219 998.691 841.003L998.691 841.003C997.14 843.712 996.326 846.781 996.329 849.903 996.011 854.554 997.855 859.091 1001.33 862.202 996.713 869.112 992.523 876.296 988.78 883.714 986.846 881.489 984.739 879.42 982.479 877.526 983.094 876.119 983.524 874.638 983.758 873.12 983.853 872.519 983.906 871.913 983.916 871.305 983.905 861.387 975.866 853.351 965.948 853.344 965.636 853.344 965.316 853.344 964.993 853.344 957.062 852.892 949.202 851.595 941.546 849.476 941.546 865.265 943.264 879.338 957.049 886.945L957.049 886.945C959.758 888.495 962.827 889.309 965.948 889.307 970.868 889.322 975.536 887.13 978.667 883.336 981.215 885.49 983.504 887.933 985.487 890.616 982.76 896.619 980.403 902.782 978.43 909.072 978.43 909.134 978.385 909.193 978.375 909.255 976.521 915.102 975.095 921.076 974.106 927.13 971.693 941.991 971.49 957.127 973.504 972.047 968.548 970.933 963.667 969.51 958.888 967.788 958.963 967.589 959.06 967.403 959.135 967.204L960.276 964.11C961.419 961.137 962.032 957.986 962.088 954.801 962.094 934.94 945.997 918.834 926.135 918.828 926.132 918.828 926.128 918.828 926.125 918.828 925.499 918.845 924.86 918.855 924.214 918.855 905.259 918.855 877.319 911.121 877.319 911.121 877.319 942.695 880.757 970.844 908.322 986.059L908.322 986.059C917.773 991.449 929.156 992.267 939.28 988.283 946.197 985.457 952.005 980.455 955.825 974.034 961.928 976.293 968.205 978.05 974.594 979.287 975.601 985.323 976.807 991.125 978.011 996.866 981.286 1010.53 983.232 1024.48 983.82 1038.52L983.095 1062.65C977.112 1064.22 971.464 1066.87 966.426 1070.46 965.013 1071.49 963.625 1072.6 962.301 1073.77 955.523 1070.97 948.257 1069.54 940.923 1069.56 920.484 1069.48 901.695 1080.77 892.183 1098.86 891.233 1100.51 891.795 1102.61 893.438 1103.56 895.082 1104.51 897.184 1103.95 898.134 1102.31 898.167 1102.25 898.197 1102.19 898.226 1102.14 910.341 1079.42 938.079 1070.11 961.449 1080.91L963.559 1081.9 965.278 1080.31C966.923 1078.78 968.656 1077.34 970.469 1076.01 975.909 1072.15 982.127 1069.53 988.687 1068.33L990.145 1068.04C1004.11 1065 1018.7 1068.42 1029.85 1077.35 1030.62 1077.98 1031.36 1078.63 1032.09 1079.3L1032.96 1080.11 1034.14 1080.21C1049.17 1081.26 1062.77 1089.48 1070.69 1102.3 1071.59 1103.97 1073.68 1104.58 1075.35 1103.68 1077.02 1102.77 1077.63 1100.68 1076.72 1099.02 1076.67 1098.91 1076.6 1098.8 1076.53 1098.7 1067.7 1084.36 1052.64 1075.02 1035.88 1073.46ZM999.787 990.06 999.787 988.183C999.804 972.162 1012.76 959.165 1028.78 959.095 1029.44 959.115 1030.11 959.122 1030.79 959.122 1044.25 958.587 1057.62 956.661 1070.69 953.375 1069.89 981.521 1064.63 1000.62 1045.37 1012.27L1043.27 1013.47C1030.05 1021.01 1013.25 1017.04 1004.8 1004.38 1005.89 1003.95 1007 1003.52 1008.12 1003.09 1017.12 1000.07 1025.67 995.816 1033.51 990.455 1035.02 989.294 1035.3 987.132 1034.13 985.625 1032.97 984.119 1030.81 983.839 1029.3 985 1021.98 989.952 1014.02 993.875 1005.63 996.66 1004.23 997.203 1002.88 997.732 1001.53 998.265 1000.4 995.677 999.806 992.884 999.794 990.06ZM1009.88 900.85C1011.98 898.699 1014.85 897.483 1017.86 897.478 1020.22 897.474 1022.52 898.242 1024.41 899.667 1029.08 903.156 1034.11 906.146 1039.4 908.588 1033.13 915.669 1027.14 919.832 1019.71 919.832 1018.93 919.831 1018.16 919.789 1017.39 919.708L1016.27 919.56C1014.36 919.304 1012.55 918.556 1011.02 917.391 1008.66 915.593 1007.13 912.917 1006.78 909.973L1006.78 908.942C1006.78 908.553 1006.85 908.175 1006.89 907.79 1009 908.122 1011.09 908.589 1013.14 909.189 1014.96 909.725 1016.87 908.684 1017.41 906.862 1017.95 905.04 1016.91 903.129 1015.08 902.593 1013.18 902.036 1011.34 901.613 1009.54 901.273 1009.64 901.124 1009.75 900.983 1009.88 900.85ZM967.141 882.346C966.745 882.391 966.347 882.414 965.948 882.414 964.019 882.416 962.123 881.914 960.448 880.957L959.506 880.421C952.15 875.952 949.476 868.692 948.689 858.218 954.046 859.39 959.501 860.058 964.982 860.215 965.326 860.215 965.67 860.215 966.014 860.215 972.111 860.27 977.027 865.224 977.034 871.322 977.022 871.6 976.993 871.878 976.948 872.154 976.882 872.549 976.794 872.94 976.687 873.326 975.092 872.299 973.409 871.415 971.658 870.686 969.84 870.14 967.923 871.172 967.378 872.991 966.895 874.599 967.646 876.32 969.152 877.062 970.533 877.643 971.859 878.346 973.116 879.163 971.536 880.861 969.432 881.982 967.141 882.346ZM936.781 981.861C933.396 983.199 929.789 983.883 926.149 983.876 921.102 983.874 916.142 982.561 911.756 980.064L909.752 978.919C890.416 967.279 885.143 948.164 884.335 919.973 897.402 923.262 910.774 925.191 924.238 925.73 924.925 925.73 925.585 925.73 926.242 925.703 942.256 925.771 955.209 938.759 955.234 954.774 955.185 957.151 954.719 959.501 953.859 961.718L952.504 965.31C943.283 961.517 934.488 956.758 926.269 951.113 924.706 950.029 922.56 950.418 921.476 951.981 920.392 953.544 920.78 955.69 922.344 956.775 930.789 962.588 939.815 967.509 949.276 971.459 946.266 976.116 941.907 979.745 936.781 981.861ZM1003.22 849.906C1003.22 847.977 1003.72 846.081 1004.68 844.406L1005.21 843.464C1009.68 836.108 1016.94 833.434 1027.42 832.646 1026.15 838.339 1025.49 844.148 1025.43 849.978 1024.88 855.243 1020.95 859.527 1015.75 860.521 1015.65 860.528 1015.54 860.528 1015.44 860.521 1014.55 860.484 1013.67 860.34 1012.81 860.091 1012.39 859.981 1011.95 859.813 1011.51 859.662 1013.32 857.18 1014.45 855.77 1014.51 855.702 1015.71 854.23 1015.49 852.065 1014.02 850.865 1012.55 849.665 1010.38 849.885 1009.18 851.357 1008.93 851.663 1007.46 853.519 1005.27 856.513 1003.83 854.624 1003.1 852.282 1003.22 849.906Z" stroke="#548235" stroke-width="3.4375" fill="#548235"/></g></g></g><g clip-path="url(#clip4)"><g clip-path="url(#clip5)"><g clip-path="url(#clip6)"><path d="M1392.88 1073.46C1392.34 1072.98 1391.78 1072.51 1391.22 1072.04 1378.81 1062.08 1362.64 1058.08 1347.02 1061.12L1347.71 1038.56C1347.5 1030.14 1346.67 1021.74 1345.24 1013.45 1348.13 1010.66 1351.56 1008.49 1355.31 1007.05 1365.46 1023.55 1386.85 1029.02 1403.67 1019.43L1403.67 1019.43C1431.26 1004.25 1434.68 976.086 1434.68 944.513 1434.68 944.513 1406.74 952.247 1387.79 952.247 1387.14 952.247 1386.51 952.247 1385.88 952.22 1366.02 952.22 1349.92 968.321 1349.92 988.183L1349.92 990.056C1349.93 993.797 1350.71 997.495 1352.2 1000.93 1349.26 1002.2 1346.45 1003.75 1343.81 1005.57 1343.14 1002.15 1342.43 998.791 1341.74 995.457 1337.51 975.213 1333.49 956.094 1337.91 928.192 1338.78 922.786 1340.03 917.447 1341.65 912.214 1346.27 909.27 1351.58 907.581 1357.05 907.312 1357.01 907.852 1356.91 908.378 1356.91 908.921L1356.91 910.351C1357.7 918.641 1364.12 925.283 1372.38 926.366L1372.38 926.366C1373.81 926.581 1375.27 926.69 1376.72 926.693 1389.85 926.693 1398.76 917.305 1407.4 905.955 1399.72 902.906 1392.42 898.979 1385.65 894.25 1382.55 891.882 1378.76 890.601 1374.86 890.603 1369.81 890.6 1364.98 892.72 1361.56 896.446 1360.54 897.666 1359.67 899.01 1358.98 900.448 1354.14 900.342 1349.32 901.196 1344.81 902.96 1349.96 889.776 1356.56 877.201 1364.47 865.464 1365.64 865.989 1366.85 866.42 1368.09 866.753 1369.51 867.147 1370.97 867.365 1372.44 867.403 1372.91 867.406 1373.38 867.371 1373.84 867.296 1382.43 865.818 1388.85 858.59 1389.31 849.885 1389.65 841.636 1390.94 833.453 1393.16 825.5 1377.37 825.5 1363.3 827.219 1355.69 841.003L1355.69 841.003C1354.14 843.712 1353.33 846.781 1353.33 849.903 1353.01 854.554 1354.85 859.091 1358.33 862.202 1353.71 869.112 1349.52 876.296 1345.78 883.714 1343.85 881.489 1341.74 879.42 1339.48 877.526 1340.09 876.119 1340.52 874.638 1340.76 873.12 1340.85 872.519 1340.91 871.913 1340.92 871.305 1340.91 861.387 1332.87 853.351 1322.95 853.344 1322.64 853.344 1322.32 853.344 1321.99 853.344 1314.06 852.892 1306.2 851.595 1298.55 849.476 1298.55 865.265 1300.26 879.338 1314.05 886.945L1314.05 886.945C1316.76 888.495 1319.83 889.309 1322.95 889.307 1327.87 889.322 1332.54 887.13 1335.67 883.336 1338.22 885.49 1340.5 887.933 1342.49 890.616 1339.76 896.619 1337.4 902.782 1335.43 909.072 1335.43 909.134 1335.39 909.193 1335.38 909.255 1333.52 915.102 1332.09 921.076 1331.11 927.13 1328.69 941.991 1328.49 957.127 1330.5 972.047 1325.55 970.933 1320.67 969.51 1315.89 967.788 1315.96 967.589 1316.06 967.403 1316.14 967.204L1317.28 964.11C1318.42 961.137 1319.03 957.986 1319.09 954.801 1319.09 934.94 1303 918.834 1283.14 918.828 1283.13 918.828 1283.13 918.828 1283.13 918.828 1282.5 918.845 1281.86 918.855 1281.21 918.855 1262.26 918.855 1234.32 911.121 1234.32 911.121 1234.32 942.695 1237.76 970.844 1265.32 986.059L1265.32 986.059C1274.77 991.449 1286.16 992.267 1296.28 988.283 1303.2 985.457 1309.01 980.455 1312.83 974.034 1318.93 976.293 1325.2 978.05 1331.59 979.287 1332.6 985.323 1333.81 991.125 1335.01 996.866 1338.29 1010.53 1340.23 1024.48 1340.82 1038.52L1340.09 1062.65C1334.11 1064.22 1328.46 1066.87 1323.43 1070.46 1322.01 1071.49 1320.62 1072.6 1319.3 1073.77 1312.52 1070.97 1305.26 1069.54 1297.92 1069.56 1277.48 1069.48 1258.69 1080.77 1249.18 1098.86 1248.23 1100.51 1248.79 1102.61 1250.44 1103.56 1252.08 1104.51 1254.18 1103.95 1255.13 1102.31 1255.17 1102.25 1255.2 1102.19 1255.23 1102.14 1267.34 1079.42 1295.08 1070.11 1318.45 1080.91L1320.56 1081.9 1322.28 1080.31C1323.92 1078.78 1325.66 1077.34 1327.47 1076.01 1332.91 1072.15 1339.13 1069.53 1345.69 1068.33L1347.15 1068.04C1361.11 1065 1375.7 1068.42 1386.86 1077.35 1387.62 1077.98 1388.36 1078.63 1389.09 1079.3L1389.96 1080.11 1391.15 1080.21C1406.17 1081.26 1419.77 1089.48 1427.69 1102.3 1428.59 1103.97 1430.68 1104.58 1432.35 1103.68 1434.02 1102.77 1434.63 1100.68 1433.72 1099.02 1433.67 1098.91 1433.6 1098.8 1433.53 1098.7 1424.7 1084.36 1409.64 1075.02 1392.88 1073.46ZM1356.79 990.06 1356.79 988.183C1356.8 972.162 1369.76 959.165 1385.78 959.095 1386.44 959.115 1387.11 959.122 1387.79 959.122 1401.25 958.587 1414.62 956.661 1427.69 953.375 1426.89 981.521 1421.63 1000.62 1402.37 1012.27L1400.27 1013.47C1387.05 1021.01 1370.25 1017.04 1361.8 1004.38 1362.89 1003.95 1364 1003.52 1365.12 1003.09 1374.12 1000.07 1382.67 995.816 1390.51 990.455 1392.02 989.294 1392.3 987.132 1391.13 985.625 1389.97 984.119 1387.81 983.839 1386.31 985 1378.98 989.952 1371.02 993.875 1362.63 996.66 1361.23 997.203 1359.88 997.732 1358.53 998.265 1357.4 995.677 1356.81 992.884 1356.79 990.06ZM1366.88 900.85C1368.98 898.699 1371.85 897.483 1374.86 897.478 1377.22 897.474 1379.52 898.242 1381.41 899.667 1386.08 903.156 1391.11 906.146 1396.4 908.588 1390.13 915.669 1384.14 919.832 1376.71 919.832 1375.93 919.831 1375.16 919.789 1374.39 919.708L1373.27 919.56C1371.36 919.304 1369.55 918.556 1368.02 917.391 1365.66 915.593 1364.13 912.917 1363.78 909.973L1363.78 908.942C1363.78 908.553 1363.85 908.175 1363.89 907.79 1366 908.122 1368.09 908.589 1370.14 909.189 1371.96 909.725 1373.88 908.684 1374.41 906.862 1374.95 905.04 1373.91 903.129 1372.08 902.593 1370.18 902.036 1368.34 901.613 1366.54 901.273 1366.64 901.124 1366.75 900.983 1366.88 900.85ZM1324.14 882.346C1323.75 882.391 1323.35 882.414 1322.95 882.414 1321.02 882.416 1319.12 881.914 1317.45 880.957L1316.51 880.421C1309.15 875.952 1306.48 868.692 1305.69 858.218 1311.05 859.39 1316.5 860.058 1321.98 860.215 1322.33 860.215 1322.67 860.215 1323.01 860.215 1329.11 860.27 1334.03 865.224 1334.03 871.322 1334.02 871.6 1333.99 871.878 1333.95 872.154 1333.88 872.549 1333.79 872.94 1333.69 873.326 1332.09 872.299 1330.41 871.415 1328.66 870.686 1326.84 870.14 1324.92 871.172 1324.38 872.991 1323.9 874.599 1324.65 876.32 1326.15 877.062 1327.53 877.643 1328.86 878.346 1330.12 879.163 1328.54 880.861 1326.43 881.982 1324.14 882.346ZM1293.78 981.861C1290.4 983.199 1286.79 983.883 1283.15 983.876 1278.1 983.874 1273.14 982.561 1268.76 980.064L1266.75 978.919C1247.42 967.279 1242.14 948.164 1241.34 919.973 1254.4 923.262 1267.77 925.191 1281.24 925.73 1281.93 925.73 1282.59 925.73 1283.24 925.703 1299.26 925.771 1312.21 938.759 1312.23 954.774 1312.19 957.151 1311.72 959.501 1310.86 961.718L1309.5 965.31C1300.28 961.517 1291.49 956.758 1283.27 951.113 1281.71 950.029 1279.56 950.418 1278.48 951.981 1277.39 953.544 1277.78 955.69 1279.34 956.775 1287.79 962.588 1296.82 967.509 1306.28 971.459 1303.27 976.116 1298.91 979.745 1293.78 981.861ZM1360.22 849.906C1360.22 847.977 1360.72 846.081 1361.68 844.406L1362.21 843.464C1366.68 836.108 1373.94 833.434 1384.42 832.646 1383.15 838.339 1382.49 844.148 1382.43 849.978 1381.88 855.243 1377.95 859.527 1372.75 860.521 1372.65 860.528 1372.54 860.528 1372.44 860.521 1371.55 860.484 1370.67 860.34 1369.81 860.091 1369.39 859.981 1368.95 859.813 1368.51 859.662 1370.32 857.18 1371.46 855.77 1371.51 855.702 1372.71 854.23 1372.49 852.065 1371.02 850.865 1369.55 849.665 1367.38 849.885 1366.18 851.357 1365.93 851.663 1364.46 853.519 1362.27 856.513 1360.83 854.624 1360.1 852.282 1360.22 849.906Z" stroke="#548235" stroke-width="3.4375" fill="#548235"/></g></g></g><g clip-path="url(#clip7)"><g clip-path="url(#clip8)"><g clip-path="url(#clip9)"><path d="M1754.88 1073.46C1754.34 1072.98 1753.78 1072.51 1753.22 1072.04 1740.81 1062.08 1724.64 1058.08 1709.02 1061.12L1709.71 1038.56C1709.5 1030.14 1708.67 1021.74 1707.24 1013.45 1710.13 1010.66 1713.56 1008.49 1717.31 1007.05 1727.46 1023.55 1748.85 1029.02 1765.67 1019.43L1765.67 1019.43C1793.26 1004.25 1796.68 976.086 1796.68 944.513 1796.68 944.513 1768.74 952.247 1749.79 952.247 1749.14 952.247 1748.51 952.247 1747.88 952.22 1728.02 952.22 1711.92 968.321 1711.92 988.183L1711.92 990.056C1711.93 993.797 1712.71 997.495 1714.2 1000.93 1711.26 1002.2 1708.45 1003.75 1705.81 1005.57 1705.14 1002.15 1704.43 998.791 1703.74 995.457 1699.51 975.213 1695.49 956.094 1699.91 928.192 1700.78 922.786 1702.03 917.447 1703.65 912.214 1708.27 909.27 1713.58 907.581 1719.05 907.312 1719.01 907.852 1718.91 908.378 1718.91 908.921L1718.91 910.351C1719.7 918.641 1726.12 925.283 1734.38 926.366L1734.38 926.366C1735.81 926.581 1737.27 926.69 1738.72 926.693 1751.85 926.693 1760.76 917.305 1769.4 905.955 1761.72 902.906 1754.42 898.979 1747.65 894.25 1744.55 891.882 1740.76 890.601 1736.86 890.603 1731.81 890.6 1726.98 892.72 1723.56 896.446 1722.54 897.666 1721.67 899.01 1720.98 900.448 1716.14 900.342 1711.32 901.196 1706.81 902.96 1711.96 889.776 1718.56 877.201 1726.47 865.464 1727.64 865.989 1728.85 866.42 1730.09 866.753 1731.51 867.147 1732.97 867.365 1734.44 867.403 1734.91 867.406 1735.38 867.371 1735.84 867.296 1744.43 865.818 1750.85 858.59 1751.31 849.885 1751.65 841.636 1752.94 833.453 1755.16 825.5 1739.37 825.5 1725.3 827.219 1717.69 841.003L1717.69 841.003C1716.14 843.712 1715.33 846.781 1715.33 849.903 1715.01 854.554 1716.85 859.091 1720.33 862.202 1715.71 869.112 1711.52 876.296 1707.78 883.714 1705.85 881.489 1703.74 879.42 1701.48 877.526 1702.09 876.119 1702.52 874.638 1702.76 873.12 1702.85 872.519 1702.91 871.913 1702.92 871.305 1702.91 861.387 1694.87 853.351 1684.95 853.344 1684.64 853.344 1684.32 853.344 1683.99 853.344 1676.06 852.892 1668.2 851.595 1660.55 849.476 1660.55 865.265 1662.26 879.338 1676.05 886.945L1676.05 886.945C1678.76 888.495 1681.83 889.309 1684.95 889.307 1689.87 889.322 1694.54 887.13 1697.67 883.336 1700.22 885.49 1702.5 887.933 1704.49 890.616 1701.76 896.619 1699.4 902.782 1697.43 909.072 1697.43 909.134 1697.39 909.193 1697.38 909.255 1695.52 915.102 1694.09 921.076 1693.11 927.13 1690.69 941.991 1690.49 957.127 1692.5 972.047 1687.55 970.933 1682.67 969.51 1677.89 967.788 1677.96 967.589 1678.06 967.403 1678.14 967.204L1679.28 964.11C1680.42 961.137 1681.03 957.986 1681.09 954.801 1681.09 934.94 1665 918.834 1645.14 918.828 1645.13 918.828 1645.13 918.828 1645.13 918.828 1644.5 918.845 1643.86 918.855 1643.21 918.855 1624.26 918.855 1596.32 911.121 1596.32 911.121 1596.32 942.695 1599.76 970.844 1627.32 986.059L1627.32 986.059C1636.77 991.449 1648.16 992.267 1658.28 988.283 1665.2 985.457 1671.01 980.455 1674.83 974.034 1680.93 976.293 1687.2 978.05 1693.59 979.287 1694.6 985.323 1695.81 991.125 1697.01 996.866 1700.29 1010.53 1702.23 1024.48 1702.82 1038.52L1702.09 1062.65C1696.11 1064.22 1690.46 1066.87 1685.43 1070.46 1684.01 1071.49 1682.62 1072.6 1681.3 1073.77 1674.52 1070.97 1667.26 1069.54 1659.92 1069.56 1639.48 1069.48 1620.69 1080.77 1611.18 1098.86 1610.23 1100.51 1610.79 1102.61 1612.44 1103.56 1614.08 1104.51 1616.18 1103.95 1617.13 1102.31 1617.17 1102.25 1617.2 1102.19 1617.23 1102.14 1629.34 1079.42 1657.08 1070.11 1680.45 1080.91L1682.56 1081.9 1684.28 1080.31C1685.92 1078.78 1687.66 1077.34 1689.47 1076.01 1694.91 1072.15 1701.13 1069.53 1707.69 1068.33L1709.15 1068.04C1723.11 1065 1737.7 1068.42 1748.86 1077.35 1749.62 1077.98 1750.36 1078.63 1751.09 1079.3L1751.96 1080.11 1753.15 1080.21C1768.17 1081.26 1781.77 1089.48 1789.69 1102.3 1790.59 1103.97 1792.68 1104.58 1794.35 1103.68 1796.02 1102.77 1796.63 1100.68 1795.72 1099.02 1795.67 1098.91 1795.6 1098.8 1795.53 1098.7 1786.7 1084.36 1771.64 1075.02 1754.88 1073.46ZM1718.79 990.06 1718.79 988.183C1718.8 972.162 1731.76 959.165 1747.78 959.095 1748.44 959.115 1749.11 959.122 1749.79 959.122 1763.25 958.587 1776.62 956.661 1789.69 953.375 1788.89 981.521 1783.63 1000.62 1764.37 1012.27L1762.27 1013.47C1749.05 1021.01 1732.25 1017.04 1723.8 1004.38 1724.89 1003.95 1726 1003.52 1727.12 1003.09 1736.12 1000.07 1744.67 995.816 1752.51 990.455 1754.02 989.294 1754.3 987.132 1753.13 985.625 1751.97 984.119 1749.81 983.839 1748.31 985 1740.98 989.952 1733.02 993.875 1724.63 996.66 1723.23 997.203 1721.88 997.732 1720.53 998.265 1719.4 995.677 1718.81 992.884 1718.79 990.06ZM1728.88 900.85C1730.98 898.699 1733.85 897.483 1736.86 897.478 1739.22 897.474 1741.52 898.242 1743.41 899.667 1748.08 903.156 1753.11 906.146 1758.4 908.588 1752.13 915.669 1746.14 919.832 1738.71 919.832 1737.93 919.831 1737.16 919.789 1736.39 919.708L1735.27 919.56C1733.36 919.304 1731.55 918.556 1730.02 917.391 1727.66 915.593 1726.13 912.917 1725.78 909.973L1725.78 908.942C1725.78 908.553 1725.85 908.175 1725.89 907.79 1728 908.122 1730.09 908.589 1732.14 909.189 1733.96 909.725 1735.88 908.684 1736.41 906.862 1736.95 905.04 1735.91 903.129 1734.08 902.593 1732.18 902.036 1730.34 901.613 1728.54 901.273 1728.64 901.124 1728.75 900.983 1728.88 900.85ZM1686.14 882.346C1685.75 882.391 1685.35 882.414 1684.95 882.414 1683.02 882.416 1681.12 881.914 1679.45 880.957L1678.51 880.421C1671.15 875.952 1668.48 868.692 1667.69 858.218 1673.05 859.39 1678.5 860.058 1683.98 860.215 1684.33 860.215 1684.67 860.215 1685.01 860.215 1691.11 860.27 1696.03 865.224 1696.03 871.322 1696.02 871.6 1695.99 871.878 1695.95 872.154 1695.88 872.549 1695.79 872.94 1695.69 873.326 1694.09 872.299 1692.41 871.415 1690.66 870.686 1688.84 870.14 1686.92 871.172 1686.38 872.991 1685.9 874.599 1686.65 876.32 1688.15 877.062 1689.53 877.643 1690.86 878.346 1692.12 879.163 1690.54 880.861 1688.43 881.982 1686.14 882.346ZM1655.78 981.861C1652.4 983.199 1648.79 983.883 1645.15 983.876 1640.1 983.874 1635.14 982.561 1630.76 980.064L1628.75 978.919C1609.42 967.279 1604.14 948.164 1603.34 919.973 1616.4 923.262 1629.77 925.191 1643.24 925.73 1643.93 925.73 1644.59 925.73 1645.24 925.703 1661.26 925.771 1674.21 938.759 1674.23 954.774 1674.19 957.151 1673.72 959.501 1672.86 961.718L1671.5 965.31C1662.28 961.517 1653.49 956.758 1645.27 951.113 1643.71 950.029 1641.56 950.418 1640.48 951.981 1639.39 953.544 1639.78 955.69 1641.34 956.775 1649.79 962.588 1658.82 967.509 1668.28 971.459 1665.27 976.116 1660.91 979.745 1655.78 981.861ZM1722.22 849.906C1722.22 847.977 1722.72 846.081 1723.68 844.406L1724.21 843.464C1728.68 836.108 1735.94 833.434 1746.42 832.646 1745.15 838.339 1744.49 844.148 1744.43 849.978 1743.88 855.243 1739.95 859.527 1734.75 860.521 1734.65 860.528 1734.54 860.528 1734.44 860.521 1733.55 860.484 1732.67 860.34 1731.81 860.091 1731.39 859.981 1730.95 859.813 1730.51 859.662 1732.32 857.18 1733.46 855.77 1733.51 855.702 1734.71 854.23 1734.49 852.065 1733.02 850.865 1731.55 849.665 1729.38 849.885 1728.18 851.357 1727.93 851.663 1726.46 853.519 1724.27 856.513 1722.83 854.624 1722.1 852.282 1722.22 849.906Z" stroke="#548235" stroke-width="3.4375" fill="#548235"/></g></g></g><g clip-path="url(#clip10)"><g clip-path="url(#clip11)"><g clip-path="url(#clip12)"><path d="M2093.88 1073.46C2093.34 1072.98 2092.78 1072.51 2092.22 1072.04 2079.81 1062.08 2063.64 1058.08 2048.02 1061.12L2048.71 1038.56C2048.5 1030.14 2047.67 1021.74 2046.24 1013.45 2049.13 1010.66 2052.56 1008.49 2056.31 1007.05 2066.46 1023.55 2087.85 1029.02 2104.67 1019.43L2104.67 1019.43C2132.26 1004.25 2135.68 976.086 2135.68 944.513 2135.68 944.513 2107.74 952.247 2088.79 952.247 2088.14 952.247 2087.51 952.247 2086.88 952.22 2067.02 952.22 2050.92 968.321 2050.92 988.183L2050.92 990.056C2050.93 993.797 2051.71 997.495 2053.2 1000.93 2050.26 1002.2 2047.45 1003.75 2044.81 1005.57 2044.14 1002.15 2043.43 998.791 2042.74 995.457 2038.51 975.213 2034.49 956.094 2038.91 928.192 2039.78 922.786 2041.03 917.447 2042.65 912.214 2047.27 909.27 2052.58 907.581 2058.05 907.312 2058.01 907.852 2057.91 908.378 2057.91 908.921L2057.91 910.351C2058.7 918.641 2065.12 925.283 2073.38 926.366L2073.38 926.366C2074.81 926.581 2076.27 926.69 2077.72 926.693 2090.85 926.693 2099.76 917.305 2108.4 905.955 2100.72 902.906 2093.42 898.979 2086.65 894.25 2083.55 891.882 2079.76 890.601 2075.86 890.603 2070.8 890.6 2065.98 892.72 2062.56 896.446 2061.54 897.666 2060.67 899.01 2059.98 900.448 2055.14 900.342 2050.32 901.196 2045.81 902.96 2050.96 889.776 2057.56 877.201 2065.47 865.464 2066.64 865.989 2067.85 866.42 2069.09 866.753 2070.51 867.147 2071.97 867.365 2073.44 867.403 2073.91 867.406 2074.38 867.371 2074.84 867.296 2083.43 865.818 2089.85 858.59 2090.31 849.885 2090.65 841.636 2091.94 833.453 2094.16 825.5 2078.37 825.5 2064.3 827.219 2056.69 841.003L2056.69 841.003C2055.14 843.712 2054.33 846.781 2054.33 849.903 2054.01 854.554 2055.85 859.091 2059.33 862.202 2054.71 869.112 2050.52 876.296 2046.78 883.714 2044.85 881.489 2042.74 879.42 2040.48 877.526 2041.09 876.119 2041.52 874.638 2041.76 873.12 2041.85 872.519 2041.91 871.913 2041.92 871.305 2041.9 861.387 2033.87 853.351 2023.95 853.344 2023.64 853.344 2023.32 853.344 2022.99 853.344 2015.06 852.892 2007.2 851.595 1999.55 849.476 1999.55 865.265 2001.26 879.338 2015.05 886.945L2015.05 886.945C2017.76 888.495 2020.83 889.309 2023.95 889.307 2028.87 889.322 2033.54 887.13 2036.67 883.336 2039.22 885.49 2041.5 887.933 2043.49 890.616 2040.76 896.619 2038.4 902.782 2036.43 909.072 2036.43 909.134 2036.39 909.193 2036.38 909.255 2034.52 915.102 2033.09 921.076 2032.11 927.13 2029.69 941.991 2029.49 957.127 2031.5 972.047 2026.55 970.933 2021.67 969.51 2016.89 967.788 2016.96 967.589 2017.06 967.403 2017.14 967.204L2018.28 964.11C2019.42 961.137 2020.03 957.986 2020.09 954.801 2020.09 934.94 2004 918.834 1984.14 918.828 1984.13 918.828 1984.13 918.828 1984.12 918.828 1983.5 918.845 1982.86 918.855 1982.21 918.855 1963.26 918.855 1935.32 911.121 1935.32 911.121 1935.32 942.695 1938.76 970.844 1966.32 986.059L1966.32 986.059C1975.77 991.449 1987.16 992.267 1997.28 988.283 2004.2 985.457 2010.01 980.455 2013.82 974.034 2019.93 976.293 2026.2 978.05 2032.59 979.287 2033.6 985.323 2034.81 991.125 2036.01 996.866 2039.29 1010.53 2041.23 1024.48 2041.82 1038.52L2041.09 1062.65C2035.11 1064.22 2029.46 1066.87 2024.43 1070.46 2023.01 1071.49 2021.62 1072.6 2020.3 1073.77 2013.52 1070.97 2006.26 1069.54 1998.92 1069.56 1978.48 1069.48 1959.69 1080.77 1950.18 1098.86 1949.23 1100.51 1949.79 1102.61 1951.44 1103.56 1953.08 1104.51 1955.18 1103.95 1956.13 1102.31 1956.17 1102.25 1956.2 1102.19 1956.23 1102.14 1968.34 1079.42 1996.08 1070.11 2019.45 1080.91L2021.56 1081.9 2023.28 1080.31C2024.92 1078.78 2026.66 1077.34 2028.47 1076.01 2033.91 1072.15 2040.13 1069.53 2046.69 1068.33L2048.15 1068.04C2062.11 1065 2076.7 1068.42 2087.85 1077.35 2088.62 1077.98 2089.36 1078.63 2090.09 1079.3L2090.96 1080.11 2092.15 1080.21C2107.17 1081.26 2120.77 1089.48 2128.69 1102.3 2129.59 1103.97 2131.68 1104.58 2133.35 1103.68 2135.02 1102.77 2135.63 1100.68 2134.72 1099.02 2134.67 1098.91 2134.6 1098.8 2134.53 1098.7 2125.7 1084.36 2110.64 1075.02 2093.88 1073.46ZM2057.79 990.06 2057.79 988.183C2057.8 972.162 2070.76 959.165 2086.78 959.095 2087.44 959.115 2088.11 959.122 2088.79 959.122 2102.25 958.587 2115.62 956.661 2128.69 953.375 2127.89 981.521 2122.63 1000.62 2103.37 1012.27L2101.27 1013.47C2088.05 1021.01 2071.25 1017.04 2062.8 1004.38 2063.89 1003.95 2065 1003.52 2066.12 1003.09 2075.12 1000.07 2083.67 995.816 2091.51 990.455 2093.02 989.294 2093.3 987.132 2092.13 985.625 2090.97 984.119 2088.81 983.839 2087.3 985 2079.98 989.952 2072.02 993.875 2063.63 996.66 2062.23 997.203 2060.88 997.732 2059.53 998.265 2058.4 995.677 2057.81 992.884 2057.79 990.06ZM2067.88 900.85C2069.98 898.699 2072.85 897.483 2075.86 897.478 2078.22 897.474 2080.52 898.242 2082.41 899.667 2087.08 903.156 2092.11 906.146 2097.4 908.588 2091.13 915.669 2085.14 919.832 2077.71 919.832 2076.93 919.831 2076.16 919.789 2075.39 919.708L2074.27 919.56C2072.36 919.304 2070.55 918.556 2069.02 917.391 2066.66 915.593 2065.13 912.917 2064.78 909.973L2064.78 908.942C2064.78 908.553 2064.85 908.175 2064.89 907.79 2067 908.122 2069.09 908.589 2071.14 909.189 2072.96 909.725 2074.88 908.684 2075.41 906.862 2075.95 905.04 2074.91 903.129 2073.08 902.593 2071.18 902.036 2069.34 901.613 2067.54 901.273 2067.64 901.124 2067.75 900.983 2067.88 900.85ZM2025.14 882.346C2024.75 882.391 2024.35 882.414 2023.95 882.414 2022.02 882.416 2020.12 881.914 2018.45 880.957L2017.51 880.421C2010.15 875.952 2007.48 868.692 2006.69 858.218 2012.05 859.39 2017.5 860.058 2022.98 860.215 2023.33 860.215 2023.67 860.215 2024.01 860.215 2030.11 860.27 2035.03 865.224 2035.03 871.322 2035.02 871.6 2034.99 871.878 2034.95 872.154 2034.88 872.549 2034.79 872.94 2034.69 873.326 2033.09 872.299 2031.41 871.415 2029.66 870.686 2027.84 870.14 2025.92 871.172 2025.38 872.991 2024.9 874.599 2025.65 876.32 2027.15 877.062 2028.53 877.643 2029.86 878.346 2031.12 879.163 2029.54 880.861 2027.43 881.982 2025.14 882.346ZM1994.78 981.861C1991.4 983.199 1987.79 983.883 1984.15 983.876 1979.1 983.874 1974.14 982.561 1969.76 980.064L1967.75 978.919C1948.42 967.279 1943.14 948.164 1942.34 919.973 1955.4 923.262 1968.77 925.191 1982.24 925.73 1982.93 925.73 1983.59 925.73 1984.24 925.703 2000.26 925.771 2013.21 938.759 2013.23 954.774 2013.18 957.151 2012.72 959.501 2011.86 961.718L2010.5 965.31C2001.28 961.517 1992.49 956.758 1984.27 951.113 1982.71 950.029 1980.56 950.418 1979.48 951.981 1978.39 953.544 1978.78 955.69 1980.34 956.775 1988.79 962.588 1997.82 967.509 2007.28 971.459 2004.27 976.116 1999.91 979.745 1994.78 981.861ZM2061.22 849.906C2061.22 847.977 2061.72 846.081 2062.68 844.406L2063.21 843.464C2067.68 836.108 2074.94 833.434 2085.42 832.646 2084.15 838.339 2083.49 844.148 2083.43 849.978 2082.88 855.243 2078.95 859.527 2073.75 860.521 2073.65 860.528 2073.54 860.528 2073.44 860.521 2072.55 860.484 2071.67 860.34 2070.81 860.091 2070.39 859.981 2069.95 859.813 2069.51 859.662 2071.32 857.18 2072.46 855.77 2072.51 855.702 2073.71 854.23 2073.49 852.065 2072.02 850.865 2070.55 849.665 2068.38 849.885 2067.18 851.357 2066.93 851.663 2065.46 853.519 2063.27 856.513 2061.83 854.624 2061.1 852.282 2061.22 849.906Z" stroke="#548235" stroke-width="3.4375" fill="#548235"/></g></g></g><g clip-path="url(#clip13)"><g clip-path="url(#clip14)"><g clip-path="url(#clip15)"><path d="M1041.61 695.735C1041.46 693.738 1040.47 691.898 1038.9 690.663 1033.13 685.91 1018.25 686.191 1009.37 686.794 1011.68 684.933 1013.68 682.719 1015.3 680.234 1018.45 675.387 1021.55 675.929 1021.67 675.96 1023 676.307 1024.36 675.513 1024.7 674.186 1025.05 672.86 1024.26 671.503 1022.93 671.157 1022.66 671.087 1016.33 669.535 1011.13 677.527 1009.88 679.433 1008.36 681.15 1006.63 682.625 1006.55 681.265 1006.13 679.947 1005.41 678.791 1006.43 678.203 1007.18 677.248 1007.52 676.122 1008.04 674.128 1006.93 671.952 1004.81 670.282L1009.64 664.758C1010.43 664.103 1010.55 662.929 1009.89 662.136 1009.24 661.344 1008.06 661.232 1007.27 661.887 1007.13 661.999 1007.02 662.13 1006.92 662.275L1001.61 668.33C1000.27 667.756 998.841 667.383 997.385 667.225L995.723 659.349C995.461 658.354 994.443 657.76 993.448 658.022 992.523 658.266 991.933 659.172 992.084 660.117L993.521 667.331C990.833 667.796 988.811 669.153 988.302 671.099 988.01 672.409 988.285 673.781 989.06 674.877 988.212 675.402 987.466 676.076 986.858 676.867 986.2 674.934 985.798 672.922 985.664 670.884 985.034 661.366 978.754 659.622 978.49 659.553 977.164 659.206 975.807 660 975.46 661.327 975.114 662.653 975.908 664.01 977.234 664.357 977.366 664.391 980.399 665.453 980.777 671.223 980.966 674.41 981.686 677.543 982.909 680.492 975.902 675.735 961.673 666.999 953.797 668.417 951.818 668.722 950.058 669.845 948.946 671.511 945.411 676.938 946.274 686.004 950.949 692.563 953.851 696.72 958.151 699.693 963.065 700.94 966.943 701.893 970.979 702.012 974.906 701.289 974.802 701.686 974.63 702.051 974.496 702.465L974.496 702.465C974.276 703.306 973.981 704.14 973.758 704.992 973.589 705.641 973.416 706.301 973.343 706.975L966.761 705.255 956.021 711.544C954.845 712.237 954.449 713.75 955.135 714.93 955.468 715.502 956.015 715.918 956.656 716.085 957.292 716.248 957.968 716.153 958.534 715.819L967.502 710.568 972.835 711.961C972.812 712.392 972.796 712.747 972.787 712.783 972.777 713.409 972.773 714.062 972.79 714.683L972.801 715.083C972.81 715.637 972.843 716.198 972.889 716.761 969.849 721.357 965.557 724.985 960.52 727.218 959.25 727.736 958.642 729.186 959.16 730.455 959.679 731.724 961.128 732.333 962.397 731.814 966.756 729.96 970.64 727.147 973.761 723.584 973.987 724.926 974.278 726.17 974.578 727.377L974.578 727.377C974.706 727.873 974.841 728.336 974.985 728.767L975.057 729.029C975.162 729.416 975.278 729.806 975.394 730.195L975.499 730.531 975.837 731.594 975.945 731.917 976.374 733.171 976.535 733.586 976.813 734.338 977.039 734.898 977.259 735.43 977.497 735.992 977.7 736.443 977.935 736.967 978.135 737.378 978.374 737.838C978.448 737.999 978.537 738.15 978.613 738.299 978.69 738.447 978.811 738.671 978.921 738.841L979.169 739.265 979.326 739.499 979.557 739.841 979.7 740.032 979.938 740.3 980.057 740.434 980.283 740.647 980.379 740.672C980.475 740.713 980.576 740.739 980.68 740.75L980.68 740.75C980.761 740.781 980.846 740.803 980.932 740.816L981.095 740.782C981.17 740.771 981.244 740.752 981.315 740.724L981.566 740.649 981.781 740.564 982.113 740.42C982.167 740.383 982.222 740.351 982.28 740.322 983.126 739.885 983.939 739.386 984.711 738.828L984.711 738.828 985.39 738.338 985.536 738.222 986.225 737.697 986.419 737.542 987.118 736.981 987.3 736.823 988.431 735.836 989.07 735.451 989.429 735.109C989.664 734.896 989.901 734.676 990.141 734.448L990.445 734.168 991.306 733.328 991.464 733.164C992.663 731.964 993.867 730.649 995.053 729.253 996.038 733.838 998.038 738.145 1000.91 741.855 1001.76 742.929 1003.32 743.107 1004.39 742.254 1005.47 741.401 1005.65 739.839 1004.79 738.766 1001.53 734.411 999.571 729.218 999.149 723.793 1000.06 722.407 1000.89 720.971 1001.63 719.49L1006.82 720.846 1012.08 729.802C1012.41 730.371 1012.95 730.785 1013.58 730.953 1014.22 731.121 1014.9 731.027 1015.47 730.691 1016.65 729.997 1017.05 728.484 1016.36 727.304L1010.07 716.563 1003.6 714.871C1003.77 714.223 1004.01 713.581 1004.18 712.932 1004.5 711.732 1004.79 710.615 1004.96 709.454 1007.9 711.801 1011.28 713.527 1014.9 714.529 1019.79 715.838 1024.99 715.348 1029.54 713.147 1036.86 709.685 1042.04 702.198 1041.61 695.735ZM979.787 691.352C979.433 691.875 979.089 692.452 978.758 692.982 978.724 693.114 978.602 693.236 978.528 693.37 978.201 693.935 977.882 694.519 977.57 695.122 977.533 695.266 977.498 695.398 977.364 695.517L977.364 695.517 976.083 696.003C963.701 698.95 957.534 693.335 955.002 689.722 951.093 684.21 950.984 677.51 953.13 674.209 953.483 673.708 954.035 673.385 954.645 673.322 956.118 673.154 957.611 673.295 959.027 673.736 966.053 675.573 976.743 682.088 983.316 686.885L982.594 687.633 982.43 687.821C982.042 688.272 981.652 688.734 981.279 689.227L981.057 689.49C980.688 689.983 980.325 690.491 979.966 691.013 979.937 691.121 979.858 691.229 979.787 691.352ZM991.461 729.545C988.921 729.411 986.401 729.019 983.94 728.375 981.441 727.727 979.017 726.818 976.707 725.663 976.21 723.56 975.833 721.431 975.577 719.286 978.525 721.235 981.776 722.683 985.196 723.571 988.585 724.466 992.099 724.791 995.594 724.531 994.312 726.279 992.932 727.953 991.461 729.545ZM1000.44 716.189C991.609 717.059 982.754 714.744 975.476 709.662 975.623 708.299 975.869 706.949 976.211 705.621 976.331 705.164 976.45 704.708 976.566 704.264 983.731 710.046 993.032 712.477 1002.11 710.941 1001.99 711.386 1001.88 711.83 1001.76 712.286 1001.41 713.617 1000.97 714.921 1000.44 716.189ZM1027.43 708.668C1023.43 710.573 1015.34 712.462 1005.97 703.829L1005.69 703.486C1005.95 699.699 1005.6 695.896 1004.66 692.22 1014.8 691.022 1031.18 690.737 1035.74 694.495 1036.24 694.848 1036.56 695.401 1036.63 696.01 1036.92 699.987 1033.54 705.774 1027.43 708.668Z"/></g></g></g><g clip-path="url(#clip16)"><g clip-path="url(#clip17)"><g clip-path="url(#clip18)"><path d="M1281.84 603.704C1281.69 601.707 1280.7 599.867 1279.13 598.632 1273.36 593.88 1258.49 594.16 1249.6 594.763 1251.91 592.903 1253.91 590.688 1255.53 588.203 1258.68 583.356 1261.78 583.898 1261.9 583.93 1263.23 584.276 1264.59 583.482 1264.93 582.156 1265.28 580.829 1264.49 579.473 1263.16 579.126 1262.9 579.057 1256.57 577.505 1251.36 585.497 1250.11 587.402 1248.59 589.119 1246.86 590.594 1246.78 589.234 1246.36 587.916 1245.64 586.76 1246.66 586.172 1247.41 585.217 1247.75 584.091 1248.27 582.098 1247.16 579.921 1245.04 578.251L1249.87 572.727C1250.67 572.072 1250.78 570.898 1250.12 570.106 1249.47 569.313 1248.29 569.201 1247.5 569.856 1247.36 569.968 1247.25 570.099 1247.15 570.244L1241.84 576.299C1240.5 575.725 1239.07 575.353 1237.62 575.194L1235.95 567.318C1235.69 566.324 1234.67 565.73 1233.68 565.992 1232.75 566.235 1232.16 567.141 1232.31 568.086L1233.75 575.3C1231.06 575.765 1229.04 577.123 1228.53 579.068 1228.24 580.378 1228.52 581.75 1229.29 582.846 1228.44 583.371 1227.7 584.045 1227.09 584.836 1226.43 582.903 1226.03 580.891 1225.89 578.853 1225.27 569.335 1218.99 567.591 1218.72 567.522 1217.39 567.175 1216.04 567.969 1215.69 569.296 1215.34 570.623 1216.14 571.979 1217.47 572.326 1217.6 572.36 1220.63 573.423 1221.01 579.192 1221.2 582.379 1221.92 585.512 1223.14 588.461 1216.13 583.704 1201.9 574.968 1194.03 576.386 1192.05 576.692 1190.29 577.814 1189.18 579.481 1185.64 584.907 1186.51 593.973 1191.18 600.533 1194.08 604.689 1198.38 607.663 1203.3 608.909 1207.17 609.862 1211.21 609.982 1215.14 609.259 1215.03 609.655 1214.86 610.02 1214.73 610.434L1214.73 610.434C1214.51 611.275 1214.21 612.109 1213.99 612.962 1213.82 613.61 1213.65 614.271 1213.57 614.944L1206.99 613.224 1196.25 619.513C1195.08 620.206 1194.68 621.719 1195.37 622.9 1195.7 623.471 1196.25 623.887 1196.89 624.054 1197.52 624.218 1198.2 624.122 1198.77 623.788L1207.73 618.537 1213.07 619.931C1213.04 620.361 1213.03 620.716 1213.02 620.752 1213.01 621.378 1213 622.032 1213.02 622.652L1213.03 623.053C1213.04 623.607 1213.07 624.167 1213.12 624.731 1210.08 629.326 1205.79 632.954 1200.75 635.187 1199.48 635.706 1198.87 637.155 1199.39 638.424 1199.91 639.694 1201.36 640.302 1202.63 639.784 1206.99 637.93 1210.87 635.116 1213.99 631.553 1214.22 632.896 1214.51 634.139 1214.81 635.347L1214.81 635.347C1214.94 635.842 1215.07 636.305 1215.22 636.736L1215.29 636.999C1215.39 637.385 1215.51 637.775 1215.63 638.164L1215.73 638.5 1216.07 639.563 1216.18 639.887 1216.6 641.141 1216.77 641.555 1217.04 642.307 1217.27 642.867 1217.49 643.399 1217.73 643.962 1217.93 644.412 1218.17 644.936 1218.37 645.348 1218.61 645.808C1218.68 645.968 1218.77 646.12 1218.84 646.268 1218.92 646.416 1219.04 646.64 1219.15 646.81L1219.4 647.234 1219.56 647.468 1219.79 647.81 1219.93 648.002 1220.17 648.269 1220.29 648.403 1220.51 648.616 1220.61 648.641C1220.71 648.682 1220.81 648.708 1220.91 648.72L1220.91 648.72C1220.99 648.751 1221.08 648.773 1221.16 648.786L1221.33 648.751C1221.4 648.74 1221.48 648.721 1221.55 648.693L1221.8 648.618 1222.01 648.533 1222.34 648.389C1222.4 648.353 1222.45 648.32 1222.51 648.291 1223.36 647.854 1224.17 647.355 1224.94 646.797L1224.94 646.797 1225.62 646.307 1225.77 646.191 1226.46 645.666 1226.65 645.511 1227.35 644.95 1227.53 644.792 1228.66 643.805 1229.3 643.42 1229.66 643.078C1229.9 642.866 1230.13 642.645 1230.37 642.417L1230.68 642.137 1231.54 641.297 1231.7 641.134C1232.89 639.933 1234.1 638.618 1235.28 637.222 1236.27 641.807 1238.27 646.114 1241.14 649.825 1241.99 650.898 1243.55 651.076 1244.63 650.223 1245.7 649.37 1245.88 647.808 1245.02 646.735 1241.76 642.381 1239.8 637.188 1239.38 631.762 1240.29 630.376 1241.12 628.94 1241.86 627.459L1247.05 628.815 1252.31 637.771C1252.64 638.34 1253.18 638.754 1253.82 638.923 1254.46 639.09 1255.14 638.996 1255.71 638.66 1256.88 637.966 1257.28 636.453 1256.59 635.273L1250.3 624.533 1243.83 622.84C1244 622.192 1244.24 621.55 1244.41 620.902 1244.73 619.701 1245.02 618.584 1245.19 617.424 1248.13 619.77 1251.51 621.497 1255.13 622.498 1260.02 623.808 1265.22 623.317 1269.77 621.116 1277.09 617.654 1282.27 610.167 1281.84 603.704ZM1220.02 599.321C1219.66 599.844 1219.32 600.421 1218.99 600.951 1218.95 601.083 1218.83 601.205 1218.76 601.34 1218.43 601.904 1218.11 602.488 1217.8 603.091 1217.76 603.235 1217.73 603.367 1217.6 603.486L1217.6 603.486 1216.31 603.972C1203.93 606.92 1197.77 601.305 1195.23 597.692 1191.32 592.179 1191.21 585.479 1193.36 582.178 1193.71 581.678 1194.27 581.354 1194.88 581.291 1196.35 581.123 1197.84 581.265 1199.26 581.705 1206.28 583.542 1216.97 590.057 1223.55 594.855L1222.83 595.603 1222.66 595.79C1222.27 596.241 1221.88 596.703 1221.51 597.196L1221.29 597.459C1220.92 597.953 1220.56 598.461 1220.2 598.983 1220.17 599.091 1220.09 599.198 1220.02 599.321ZM1231.69 637.515C1229.15 637.381 1226.63 636.988 1224.17 636.344 1221.67 635.696 1219.25 634.787 1216.94 633.632 1216.44 631.53 1216.06 629.401 1215.81 627.255 1218.76 629.204 1222.01 630.652 1225.43 631.54 1228.82 632.435 1232.33 632.76 1235.83 632.501 1234.54 634.249 1233.16 635.923 1231.69 637.515ZM1240.67 624.158C1231.84 625.028 1222.99 622.714 1215.71 617.632 1215.85 616.268 1216.1 614.918 1216.44 613.59 1216.56 613.134 1216.68 612.677 1216.8 612.233 1223.96 618.015 1233.26 620.447 1242.34 618.91 1242.23 619.355 1242.11 619.799 1241.99 620.255 1241.65 621.586 1241.21 622.891 1240.67 624.158ZM1267.66 616.637C1263.66 618.543 1255.57 620.431 1246.2 611.798L1245.92 611.455C1246.18 607.669 1245.83 603.865 1244.89 600.189 1255.03 598.991 1271.41 598.706 1275.97 602.464 1276.47 602.818 1276.79 603.37 1276.86 603.979 1277.15 607.957 1273.77 613.743 1267.66 616.637Z"/></g></g></g><g clip-path="url(#clip19)"><g clip-path="url(#clip20)"><g clip-path="url(#clip21)"><path d="M1465.52 709.183C1464.23 707.65 1462.36 706.73 1460.36 706.646 1452.9 706.146 1440.98 715.05 1434.12 720.72 1434.91 717.863 1435.24 714.898 1435.1 711.937 1434.84 706.16 1437.68 704.791 1437.79 704.746 1439.07 704.254 1439.71 702.818 1439.22 701.538 1438.73 700.258 1437.29 699.619 1436.01 700.111 1435.76 700.209 1429.71 702.64 1430.14 712.169 1430.24 714.445 1430 716.724 1429.45 718.935 1428.6 717.876 1427.49 717.049 1426.23 716.53 1426.71 715.459 1426.77 714.243 1426.39 713.132 1425.65 711.208 1423.47 710.088 1420.78 709.966L1421.48 702.661C1421.75 701.667 1421.15 700.648 1420.16 700.386 1419.16 700.124 1418.15 700.718 1417.88 701.712 1417.84 701.882 1417.82 702.058 1417.82 702.233L1417.05 710.245C1415.62 710.564 1414.24 711.093 1412.97 711.813L1407.02 706.384C1406.23 705.728 1405.06 705.84 1404.4 706.632 1403.79 707.37 1403.84 708.45 1404.52 709.13L1409.89 714.152C1407.98 716.097 1407.13 718.379 1407.85 720.256 1408.37 721.49 1409.4 722.445 1410.67 722.884 1410.28 723.805 1410.07 724.787 1410.04 725.784 1408.38 724.598 1406.88 723.198 1405.58 721.62 1399.52 714.255 1393.4 716.5 1393.14 716.598 1391.86 717.09 1391.22 718.526 1391.72 719.806 1392.21 721.086 1393.64 721.725 1394.92 721.233 1395.05 721.184 1398.13 720.279 1401.81 724.745 1403.82 727.224 1406.23 729.349 1408.94 731.032 1400.48 731.254 1383.82 732.454 1378.25 738.199 1376.82 739.601 1376.05 741.54 1376.12 743.541 1376.41 750.011 1382.4 756.873 1390.02 759.475 1394.8 761.16 1400.03 761.068 1404.75 759.215 1408.45 757.728 1411.8 755.472 1414.57 752.594 1414.72 752.977 1414.79 753.374 1414.92 753.788L1414.92 753.788C1415.23 754.6 1415.48 755.449 1415.8 756.272 1416.04 756.897 1416.28 757.535 1416.61 758.125L1410.27 760.565 1405.21 771.937C1404.66 773.186 1405.22 774.646 1406.46 775.205 1407.07 775.475 1407.75 775.494 1408.37 775.256 1408.98 775.018 1409.48 774.546 1409.74 773.944L1413.97 764.449 1419.11 762.472C1419.34 762.835 1419.54 763.132 1419.55 763.167 1419.91 763.681 1420.28 764.214 1420.66 764.708L1420.9 765.027C1421.23 765.472 1421.59 765.908 1421.95 766.34 1422.16 771.845 1420.79 777.296 1418 782.047 1417.27 783.208 1417.62 784.741 1418.79 785.469 1419.95 786.198 1421.48 785.848 1422.21 784.686 1424.67 780.638 1426.18 776.088 1426.64 771.374 1427.61 772.332 1428.57 773.173 1429.52 773.979L1429.52 773.979C1429.91 774.307 1430.29 774.604 1430.66 774.87L1430.87 775.041C1431.18 775.294 1431.5 775.543 1431.82 775.792L1432.1 776.003 1433 776.67 1433.27 776.87 1434.35 777.638 1434.73 777.881 1435.39 778.33 1435.9 778.653 1436.39 778.957 1436.91 779.275 1437.34 779.523 1437.83 779.811 1438.24 780.029 1438.7 780.263C1438.85 780.351 1439.01 780.422 1439.16 780.498 1439.31 780.574 1439.54 780.685 1439.73 780.759L1440.18 780.959 1440.44 781.057 1440.83 781.201 1441.06 781.273 1441.41 781.351 1441.58 781.391 1441.89 781.432 1441.98 781.396C1442.08 781.373 1442.18 781.336 1442.27 781.285L1442.27 781.285C1442.35 781.262 1442.44 781.231 1442.51 781.191L1442.63 781.068C1442.68 781.015 1442.73 780.956 1442.77 780.893L1442.93 780.685 1443.06 780.491 1443.24 780.18C1443.26 780.119 1443.29 780.06 1443.32 780.003 1443.75 779.155 1444.12 778.275 1444.42 777.372L1444.42 777.372 1444.69 776.578 1444.74 776.399 1445 775.57 1445.06 775.331 1445.3 774.468 1445.36 774.233 1445.7 772.772 1446 772.087 1446.09 771.599C1446.16 771.29 1446.22 770.972 1446.28 770.647L1446.37 770.243 1446.58 769.058 1446.61 768.833C1446.88 767.158 1447.09 765.389 1447.24 763.562 1450.72 766.713 1454.85 769.045 1459.35 770.387 1460.67 770.762 1462.04 769.996 1462.41 768.677 1462.79 767.358 1462.02 765.985 1460.7 765.611 1455.51 763.977 1450.89 760.9 1447.39 756.739 1447.32 755.082 1447.15 753.431 1446.9 751.794L1451.9 749.87 1461.39 754.082C1461.99 754.351 1462.67 754.371 1463.29 754.138 1463.91 753.901 1464.4 753.427 1464.67 752.822 1465.22 751.573 1464.66 750.113 1463.42 749.555L1452.04 744.496 1445.8 746.896C1445.56 746.271 1445.38 745.607 1445.14 744.981 1444.7 743.822 1444.28 742.745 1443.75 741.7 1447.5 741.895 1451.25 741.326 1454.78 740.027 1459.52 738.24 1463.45 734.812 1465.87 730.366 1469.8 723.285 1469.64 714.184 1465.52 709.183ZM1412.74 741.674C1412.76 742.306 1412.81 742.976 1412.85 743.599 1412.9 743.726 1412.88 743.896 1412.89 744.049 1412.96 744.698 1413.04 745.359 1413.14 746.03 1413.19 746.169 1413.24 746.296 1413.2 746.471L1413.2 746.471 1412.44 747.613C1404.1 757.228 1395.82 756.262 1391.65 754.804 1385.26 752.606 1381.27 747.226 1381.09 743.293 1381.08 742.68 1381.34 742.096 1381.8 741.689 1382.9 740.694 1384.19 739.938 1385.6 739.47 1392.38 736.865 1404.87 735.924 1413 735.989L1412.85 737.017 1412.83 737.266C1412.78 737.857 1412.73 738.461 1412.71 739.078L1412.69 739.421C1412.67 740.038 1412.67 740.662 1412.69 741.296 1412.73 741.4 1412.73 741.534 1412.74 741.674ZM1444.5 765.895C1442.35 767.267 1440.08 768.418 1437.7 769.33 1435.29 770.261 1432.8 770.936 1430.25 771.344 1428.62 769.926 1427.07 768.416 1425.61 766.823 1429.14 766.687 1432.63 765.968 1435.92 764.695 1439.2 763.446 1442.24 761.66 1444.93 759.411 1444.91 761.579 1444.76 763.744 1444.5 765.895ZM1444 749.807C1437.33 755.665 1428.79 758.948 1419.91 759.064 1419.24 757.87 1418.65 756.63 1418.16 755.352 1417.99 754.911 1417.82 754.471 1417.65 754.042 1426.85 754.561 1435.82 751.113 1442.3 744.571 1442.46 745 1442.63 745.429 1442.8 745.869 1443.29 747.151 1443.7 748.467 1444 749.807ZM1461.54 727.961C1459.4 731.841 1453.93 738.093 1441.29 736.542L1440.86 736.428C1438.86 733.201 1436.36 730.314 1433.45 727.878 1440.99 720.991 1454.13 711.207 1460.03 711.6 1460.64 711.596 1461.22 711.856 1461.63 712.314 1464.19 715.373 1464.81 722.048 1461.54 727.961Z"/></g></g></g><g clip-path="url(#clip22)"><g clip-path="url(#clip23)"><g clip-path="url(#clip24)"><path d="M1735.66 684.604C1735.51 682.607 1734.52 680.767 1732.94 679.532 1727.18 674.779 1712.3 675.06 1703.42 675.663 1705.73 673.802 1707.73 671.588 1709.34 669.103 1712.5 664.256 1715.6 664.798 1715.72 664.829 1717.05 665.176 1718.4 664.382 1718.75 663.055 1719.1 661.729 1718.3 660.372 1716.98 660.026 1716.71 659.956 1710.38 658.404 1705.18 666.396 1703.93 668.302 1702.41 670.019 1700.67 671.494 1700.6 670.134 1700.18 668.816 1699.46 667.66 1700.47 667.072 1701.23 666.117 1701.57 664.991 1702.09 662.997 1700.97 660.821 1698.86 659.151L1703.69 653.627C1704.48 652.972 1704.59 651.798 1703.94 651.005 1703.28 650.213 1702.11 650.101 1701.32 650.756 1701.18 650.868 1701.06 650.999 1700.96 651.144L1695.66 657.199C1694.31 656.625 1692.89 656.253 1691.43 656.094L1689.77 648.218C1689.51 647.224 1688.49 646.629 1687.5 646.891 1686.57 647.135 1685.98 648.041 1686.13 648.986L1687.57 656.2C1684.88 656.665 1682.86 658.022 1682.35 659.968 1682.06 661.278 1682.33 662.65 1683.11 663.746 1682.26 664.271 1681.51 664.945 1680.91 665.736 1680.25 663.803 1679.85 661.791 1679.71 659.753 1679.08 650.235 1672.8 648.491 1672.54 648.422 1671.21 648.075 1669.85 648.869 1669.51 650.196 1669.16 651.522 1669.96 652.879 1671.28 653.226 1671.41 653.26 1674.45 654.322 1674.82 660.092 1675.01 663.279 1675.73 666.412 1676.96 669.361 1669.95 664.604 1655.72 655.868 1647.84 657.286 1645.87 657.591 1644.11 658.714 1642.99 660.38 1639.46 665.807 1640.32 674.873 1645 681.432 1647.9 685.589 1652.2 688.562 1657.11 689.809 1660.99 690.762 1665.03 690.881 1668.95 690.158 1668.85 690.555 1668.68 690.92 1668.54 691.334L1668.54 691.334C1668.32 692.175 1668.03 693.009 1667.81 693.861 1667.64 694.51 1667.46 695.17 1667.39 695.844L1660.81 694.124 1650.07 700.413C1648.89 701.106 1648.5 702.619 1649.18 703.799 1649.52 704.371 1650.06 704.787 1650.7 704.954 1651.34 705.117 1652.02 705.022 1652.58 704.688L1661.55 699.437 1666.88 700.831C1666.86 701.261 1666.84 701.616 1666.83 701.652 1666.82 702.278 1666.82 702.931 1666.84 703.552L1666.85 703.952C1666.86 704.506 1666.89 705.067 1666.94 705.63 1663.9 710.226 1659.6 713.854 1654.57 716.087 1653.3 716.605 1652.69 718.055 1653.21 719.324 1653.73 720.593 1655.18 721.202 1656.45 720.683 1660.8 718.829 1664.69 716.016 1667.81 712.453 1668.04 713.795 1668.33 715.039 1668.63 716.246L1668.63 716.246C1668.75 716.742 1668.89 717.205 1669.03 717.636L1669.11 717.898C1669.21 718.285 1669.33 718.675 1669.44 719.064L1669.55 719.4 1669.88 720.463 1669.99 720.786 1670.42 722.04 1670.58 722.455 1670.86 723.207 1671.09 723.767 1671.31 724.299 1671.54 724.862 1671.75 725.312 1671.98 725.836 1672.18 726.247 1672.42 726.707C1672.5 726.868 1672.58 727.019 1672.66 727.168 1672.74 727.316 1672.86 727.54 1672.97 727.71L1673.22 728.134 1673.37 728.368 1673.6 728.71 1673.75 728.901 1673.99 729.169 1674.1 729.303 1674.33 729.516 1674.43 729.541C1674.52 729.582 1674.62 729.608 1674.73 729.62L1674.73 729.62C1674.81 729.65 1674.89 729.672 1674.98 729.685L1675.14 729.651C1675.22 729.64 1675.29 729.621 1675.36 729.593L1675.61 729.518 1675.83 729.433 1676.16 729.289C1676.21 729.252 1676.27 729.22 1676.33 729.191 1677.17 728.754 1677.99 728.255 1678.76 727.697L1678.76 727.697 1679.44 727.207 1679.58 727.091 1680.27 726.566 1680.47 726.411 1681.17 725.85 1681.35 725.692 1682.48 724.705 1683.12 724.32 1683.48 723.978C1683.71 723.765 1683.95 723.545 1684.19 723.317L1684.49 723.037 1685.35 722.197 1685.51 722.033C1686.71 720.833 1687.91 719.518 1689.1 718.122 1690.09 722.707 1692.09 727.014 1694.95 730.724 1695.81 731.798 1697.37 731.976 1698.44 731.123 1699.52 730.27 1699.69 728.708 1698.84 727.635 1695.58 723.28 1693.62 718.087 1693.2 712.662 1694.11 711.276 1694.94 709.84 1695.68 708.359L1700.87 709.715 1706.12 718.671C1706.45 719.24 1707 719.654 1707.63 719.822 1708.27 719.99 1708.95 719.896 1709.52 719.56 1710.7 718.866 1711.09 717.353 1710.41 716.173L1704.12 705.432 1697.65 703.74C1697.82 703.092 1698.06 702.45 1698.23 701.801 1698.54 700.601 1698.84 699.484 1699.01 698.323 1701.95 700.67 1705.33 702.396 1708.95 703.398 1713.84 704.707 1719.03 704.217 1723.59 702.016 1730.91 698.554 1736.09 691.067 1735.66 684.604ZM1673.84 680.221C1673.48 680.744 1673.14 681.321 1672.81 681.851 1672.77 681.983 1672.65 682.105 1672.58 682.24 1672.25 682.804 1671.93 683.388 1671.62 683.991 1671.58 684.135 1671.55 684.267 1671.41 684.386L1671.41 684.386 1670.13 684.872C1657.75 687.819 1651.58 682.204 1649.05 678.591 1645.14 673.079 1645.03 666.379 1647.18 663.078 1647.53 662.577 1648.08 662.254 1648.69 662.191 1650.17 662.023 1651.66 662.164 1653.07 662.605 1660.1 664.442 1670.79 670.957 1677.36 675.754L1676.64 676.502 1676.48 676.69C1676.09 677.141 1675.7 677.603 1675.33 678.096L1675.1 678.359C1674.74 678.852 1674.37 679.36 1674.01 679.882 1673.99 679.99 1673.91 680.098 1673.84 680.221ZM1685.51 718.414C1682.97 718.28 1680.45 717.888 1677.99 717.244 1675.49 716.596 1673.06 715.687 1670.76 714.532 1670.26 712.429 1669.88 710.3 1669.62 708.155 1672.57 710.104 1675.82 711.552 1679.24 712.44 1682.63 713.335 1686.15 713.66 1689.64 713.4 1688.36 715.148 1686.98 716.823 1685.51 718.414ZM1694.49 705.058C1685.66 705.928 1676.8 703.613 1669.52 698.531 1669.67 697.168 1669.92 695.818 1670.26 694.49 1670.38 694.033 1670.5 693.577 1670.61 693.133 1677.78 698.915 1687.08 701.346 1696.16 699.81 1696.04 700.255 1695.93 700.699 1695.81 701.155 1695.46 702.486 1695.02 703.79 1694.49 705.058ZM1721.48 697.537C1717.48 699.442 1709.39 701.331 1700.02 692.698L1699.74 692.355C1700 688.568 1699.65 684.765 1698.7 681.089 1708.85 679.891 1725.23 679.606 1729.79 683.364 1730.29 683.717 1730.61 684.27 1730.67 684.879 1730.97 688.856 1727.58 694.643 1721.48 697.537Z"/></g></g></g><g clip-path="url(#clip25)"><g clip-path="url(#clip26)"><g clip-path="url(#clip27)"><path d="M2090.82 704.693C2089.55 703.141 2087.69 702.192 2085.69 702.077 2078.25 701.463 2066.19 710.184 2059.24 715.748 2060.07 712.903 2060.45 709.944 2060.36 706.981 2060.18 701.201 2063.04 699.875 2063.16 699.832 2064.44 699.36 2065.11 697.934 2064.63 696.647 2064.16 695.359 2062.73 694.699 2061.45 695.171 2061.19 695.265 2055.11 697.603 2055.39 707.137 2055.45 709.415 2055.19 711.689 2054.6 713.892 2053.76 712.82 2052.67 711.976 2051.42 711.438 2051.92 710.374 2051.99 709.16 2051.62 708.043 2050.92 706.108 2048.76 704.955 2046.07 704.792L2046.88 697.498C2047.16 696.508 2046.58 695.481 2045.59 695.203 2044.6 694.926 2043.58 695.504 2043.3 696.494 2043.25 696.664 2043.23 696.839 2043.23 697.015L2042.33 705.014C2040.9 705.311 2039.51 705.818 2038.23 706.518L2032.37 700.999C2031.59 700.332 2030.41 700.425 2029.74 701.208 2029.12 701.936 2029.15 703.016 2029.82 703.706L2035.11 708.811C2033.17 710.726 2032.29 712.995 2032.98 714.883 2033.49 716.125 2034.5 717.095 2035.76 717.553 2035.36 718.468 2035.13 719.447 2035.08 720.444 2033.44 719.232 2031.96 717.809 2030.69 716.212 2024.74 708.755 2018.59 710.906 2018.33 711 2017.05 711.472 2016.38 712.899 2016.86 714.186 2017.33 715.473 2018.76 716.134 2020.04 715.662 2020.17 715.615 2023.27 714.756 2026.87 719.279 2028.84 721.788 2031.22 723.95 2033.91 725.674 2025.44 725.766 2008.77 726.711 2003.11 732.371 2001.66 733.751 2000.86 735.677 2000.9 737.679 2001.09 744.153 2006.97 751.106 2014.55 753.825 2019.31 755.582 2024.54 755.57 2029.28 753.789 2033.01 752.36 2036.39 750.154 2039.21 747.32 2039.35 747.704 2039.41 748.103 2039.54 748.519L2039.54 748.519C2039.84 749.335 2040.07 750.188 2040.38 751.015 2040.61 751.645 2040.84 752.286 2041.17 752.881L2034.78 755.224 2029.55 766.517C2028.98 767.758 2029.52 769.226 2030.75 769.803 2031.35 770.083 2032.04 770.112 2032.66 769.884 2033.28 769.655 2033.78 769.191 2034.05 768.594L2038.42 759.164 2043.59 757.266C2043.82 757.632 2044.01 757.933 2044.02 757.968 2044.37 758.487 2044.74 759.026 2045.11 759.526L2045.35 759.848C2045.67 760.298 2046.02 760.739 2046.38 761.176 2046.5 766.685 2045.05 772.114 2042.19 776.822 2041.44 777.972 2041.77 779.509 2042.92 780.256 2044.07 781.002 2045.61 780.675 2046.35 779.525 2048.87 775.515 2050.46 770.988 2050.99 766.281 2051.94 767.255 2052.89 768.11 2053.82 768.93L2053.82 768.93C2054.21 769.264 2054.59 769.567 2054.95 769.839L2055.16 770.013C2055.47 770.271 2055.78 770.525 2056.1 770.779L2056.38 770.994 2057.26 771.675 2057.54 771.878 2058.6 772.663 2058.97 772.912 2059.63 773.371 2060.14 773.702 2060.62 774.013 2061.14 774.339 2061.56 774.594 2062.05 774.889 2062.45 775.113 2062.91 775.355C2063.06 775.444 2063.22 775.518 2063.37 775.596 2063.52 775.674 2063.74 775.789 2063.93 775.866L2064.38 776.073 2064.64 776.175 2065.02 776.324 2065.25 776.4 2065.6 776.484 2065.77 776.526 2066.08 776.572 2066.17 776.537C2066.28 776.516 2066.37 776.48 2066.47 776.43L2066.47 776.43C2066.55 776.409 2066.63 776.379 2066.71 776.341L2066.82 776.219C2066.88 776.167 2066.93 776.109 2066.97 776.046L2067.14 775.841 2067.26 775.649 2067.45 775.341C2067.48 775.281 2067.5 775.222 2067.53 775.165 2067.98 774.324 2068.36 773.45 2068.68 772.551L2068.68 772.551 2068.96 771.761 2069.01 771.583 2069.28 770.758 2069.35 770.521 2069.6 769.661 2069.66 769.427 2070.03 767.971 2070.33 767.291 2070.43 766.805C2070.5 766.496 2070.57 766.18 2070.64 765.856L2070.73 765.453 2070.96 764.272 2070.99 764.047C2071.29 762.376 2071.53 760.61 2071.71 758.786 2075.13 761.99 2079.23 764.385 2083.71 765.796 2085.02 766.19 2086.4 765.446 2086.8 764.132 2087.19 762.819 2086.45 761.435 2085.13 761.04 2079.97 759.327 2075.4 756.18 2071.96 751.966 2071.91 750.308 2071.77 748.655 2071.54 747.014L2076.57 745.167 2086 749.524C2086.6 749.802 2087.28 749.832 2087.9 749.608 2088.52 749.381 2089.02 748.915 2089.3 748.314 2089.87 747.073 2089.33 745.605 2088.09 745.027L2076.8 739.796 2070.52 742.1C2070.29 741.471 2070.12 740.804 2069.89 740.175 2069.46 739.01 2069.07 737.926 2068.55 736.873 2072.3 737.125 2076.06 736.614 2079.6 735.369 2084.37 733.655 2088.35 730.287 2090.84 725.879 2094.88 718.859 2094.85 709.756 2090.82 704.693ZM2037.54 736.373C2037.55 737.005 2037.6 737.675 2037.63 738.299 2037.68 738.427 2037.65 738.597 2037.66 738.75 2037.72 739.4 2037.79 740.061 2037.87 740.734 2037.93 740.874 2037.97 741.002 2037.93 741.176L2037.93 741.176 2037.16 742.307C2028.67 751.793 2020.4 750.701 2016.26 749.179 2009.9 746.883 2005.99 741.443 2005.87 737.507 2005.87 736.895 2006.14 736.314 2006.61 735.914 2007.72 734.936 2009.03 734.2 2010.44 733.754 2017.26 731.253 2029.76 730.503 2037.89 730.692L2037.73 731.718 2037.7 731.966C2037.64 732.557 2037.58 733.16 2037.56 733.777L2037.52 734.12C2037.5 734.736 2037.49 735.36 2037.5 735.994 2037.54 736.099 2037.53 736.232 2037.54 736.373ZM2068.92 761.077C2066.76 762.416 2064.47 763.532 2062.08 764.407 2059.66 765.301 2057.15 765.938 2054.59 766.307 2052.99 764.864 2051.46 763.331 2050.03 761.715 2053.56 761.634 2057.06 760.968 2060.37 759.745 2063.66 758.547 2066.74 756.808 2069.46 754.601 2069.4 756.768 2069.22 758.93 2068.92 761.077ZM2068.68 744.983C2061.92 750.738 2053.33 753.89 2044.45 753.871 2043.8 752.667 2043.23 751.417 2042.75 750.132 2042.59 749.689 2042.42 749.246 2042.27 748.815 2051.45 749.474 2060.48 746.164 2067.05 739.722 2067.21 740.153 2067.37 740.584 2067.53 741.027 2068.01 742.316 2068.39 743.638 2068.68 744.983ZM2086.55 723.408C2084.35 727.255 2078.78 733.422 2066.17 731.678L2065.74 731.557C2063.79 728.3 2061.33 725.376 2058.46 722.895 2066.11 716.124 2079.4 706.542 2085.29 707.026 2085.9 707.031 2086.48 707.3 2086.88 707.764 2089.39 710.862 2089.91 717.546 2086.55 723.408Z"/></g></g></g><path d="M0.0608866-2.29086 18.9417-1.78904 37.8789-0.153267 56.742 2.42469 75.4837 5.94661 94.0322 10.4737 112.448 15.879 130.61 22.1634 148.518 29.2638 166.113 37.1814 183.388 45.9133 200.283 55.3346 216.739 65.4469 232.82 76.251 248.396 87.7447 263.406 99.7397 277.917 112.367 291.799 125.557 305.116 139.252 317.681 153.387 329.617 167.962 340.805 182.921 351.179 198.262 360.735 213.979 369.476 229.951 377.341 246.247 384.262 262.796 390.242 279.477 395.218 296.42 399.124 313.431 401.963 330.591 402.928 341.942 398.361 342.33 397.404 331.069 397.427 331.249 394.614 314.249 394.641 314.388 390.766 297.513 390.801 297.646 385.864 280.833 385.905 280.961 379.968 264.398 380.011 264.509 373.136 248.072 373.186 248.184 365.374 231.996 365.427 232.1 356.74 216.225 356.792 216.316 347.292 200.691 347.352 200.784 337.039 185.534 337.102 185.623 325.977 170.748 326.04 170.827 314.165 156.327 314.225 156.397 301.725 142.335 301.795 142.41 288.545 128.785 288.609 128.849 274.796 115.724 274.871 115.791 260.433 103.229 260.507 103.29 245.569 91.3527 245.639 91.4065 230.139 79.969 230.222 80.0272 214.222 69.2772 214.3 69.3275 197.925 59.265 198.009 59.314 181.196 49.939 181.279 49.9827 164.091 41.2952 164.185 41.3398 146.685 33.4648 146.78 33.5053 128.968 26.4428 129.063 26.4782 111.001 20.2282 111.105 20.2614 92.7921 14.8864 92.8941 14.9138 74.4566 10.4138 74.5768 10.4397 55.9518 6.93974 56.0647 6.95806 37.3147 4.39556 37.4278 4.40816 18.6153 2.78316 18.7516 2.79086-0.0608866 2.29086ZM414.099 336.747 402 365.013 386.647 338.374Z" fill="#00B0F0" transform="matrix(1.83697e-16 1 1 -1.83697e-16 447.5 560.5)"/><text fill="#00B0F0" font-family="Calibri,Calibri_MSFontService,sans-serif" font-weight="400" font-size="64" transform="matrix(1 0 0 1 471.343 1018)">Druckluft</text><path d="M2157.47 572.929 752 569" stroke="#FF0000" stroke-width="10.3125" stroke-miterlimit="8" fill="none" fill-rule="evenodd"/><text fill="#FF0000" font-family="Calibri,Calibri_MSFontService,sans-serif" font-weight="400" font-size="64" transform="matrix(1 0 0 1 1842.41 634)">Klebeflche</text></g></svg>